<svg width="200" height="200" viewBox="0 0 200 200" fill="none" xmlns="http://www.w3.org/2000/svg">
<path d="M180.347 5.1197C182.406 4.70916 185.065 5.39649 186.825 6.54251C189.142 8.06303 190.754 10.4416 191.307 13.1516C193.058 21.6366 182.455 30.2595 176.711 35.0991C173.177 38.0632 169.622 41.0016 166.045 43.9143C156.416 51.8097 146.731 59.745 137.302 67.8705C136.046 68.9528 130.652 73.3787 129.975 74.3995L130.054 74.597C130.648 74.8867 131.375 74.9046 132.026 75.0001C135.045 75.4433 138.385 75.6808 141.361 74.8833C142.79 74.5006 144.183 73.5979 145.627 73.3902C146.398 73.279 147.167 73.5234 147.771 74.0085C148.413 74.5246 148.859 75.2742 148.938 76.0995C149.012 76.89 148.699 77.7513 148.183 78.3483C145.889 81.0037 139.384 81.6192 136.011 81.5783C133.45 81.5472 130.813 81.2461 128.277 80.8808C126.989 80.6953 124.937 79.907 123.722 80.07C122.913 80.1786 111.383 91.446 110.218 92.7597C110.717 94.0319 111.746 95.984 112.339 97.308C115.039 103.333 117.857 109.971 116.481 116.703C116.003 119.041 114.832 120.254 114.088 122.2C113.877 122.755 114.093 125.972 114.008 126.951C113.743 129.987 112.391 133.038 110.053 135.031C106.127 138.373 101.391 138.045 96.639 137.723C97.5062 141.029 97.8408 143.112 96.9401 146.467C97.7739 149.144 98.8513 152.875 96.7964 155.32C90.8982 162.337 78.7607 155.39 73.137 151.181C72.5093 151.897 71.5103 152.782 70.7972 153.451C71.7893 156.249 72.9725 158.79 73.8616 161.708C76.7568 171.208 78.7308 183.327 72.8103 192.097C72.0876 193.167 71.3115 194.191 70.1118 194.751C67.5865 195.974 64.9554 192.391 66.2687 190.655C73.6801 180.856 69.6746 168.516 65.7178 157.622C64.8312 158.176 63.2804 159.554 62.4434 160.258C60.9915 161.479 59.5231 162.679 58.0385 163.859C53.184 167.751 48.2879 171.569 43.1793 175.131C41.6302 176.212 39.9104 177.748 38.2039 178.551C36.508 179.26 35.5979 177.697 36.8597 176.464C38.8156 174.552 40.7901 172.665 42.7406 170.755L56.8412 156.983C58.4097 155.46 61.4559 152.801 62.7031 151.152C61.9761 149.737 61.2241 148.333 60.4479 146.943C58.8114 148.058 54.4665 152.163 52.775 153.669L37.2421 167.471C35.4419 169.078 33.1538 171.392 31.0459 172.614C30.6058 172.869 29.5833 172.347 29.5483 171.716C29.4944 170.74 30.2375 169.959 30.8775 169.297C35.7787 164.257 40.6368 159.175 45.5329 154.13C47.4389 152.167 49.5354 150.128 51.2998 148.057C49.6202 147.265 48.6725 146.755 47.1203 145.786C45.946 147.006 44.5651 148.238 43.3229 149.411C38.4153 154.043 33.6377 158.856 28.6156 163.357C27.5986 164.269 24.9206 167.999 23.5273 165.935C23.4599 165.605 23.3802 165.096 23.5611 164.786C24.2857 163.543 26.4295 161.501 27.1724 160.584C28.9308 158.414 42.1043 144.289 42.5763 143.157C42.3926 142.645 39.1997 140.392 38.5707 139.988C32.0562 146.332 25.9377 153.151 19.3771 159.451C19.1327 159.686 18.5858 159.931 18.2742 160.072C17.9008 159.807 17.2949 159.455 17.1942 158.977C16.8022 157.115 32.0359 138.511 34.0545 135.7C34.0222 135.667 33.9899 135.635 33.9576 135.603C30.4303 131.558 26.8809 126.697 26.9279 121.116C26.959 117.567 28.9496 114.316 32.4718 113.308C33.9725 112.877 34.7027 112.852 36.2738 112.883C37.2604 112.922 37.5718 112.986 38.5076 113.234C38.8576 112.317 39.0835 111.559 39.7494 110.786C42.2291 107.908 46.2744 108.349 49.5783 109.219C50.335 109.418 51.8705 110.084 52.5066 110.009L52.5147 109.872C51.022 108.909 48 109.123 47.1083 107.004C46.5118 105.586 47.4357 103.494 48.8866 102.983C50.6905 102.349 52.68 103.406 54.369 103.998C55.3349 104.357 56.3757 104.821 57.3445 105.222C56.1065 102.958 54.8643 100.617 55.1687 98.0095C55.7091 93.3797 60.3142 92.3138 64.0962 93.5655C64.8115 93.8021 65.8881 94.1887 66.5896 94.2928C67.3127 93.7013 64.6411 90.1238 66.0879 89.5889C66.7487 89.7107 66.8508 90.0491 67.0743 90.7415C69.7217 98.9433 73.505 106.791 77.7183 114.299C78.3048 115.343 79.9687 118.489 80.7585 119.175C82.0114 120.263 85.0597 121.439 86.666 122.263C86.1265 120.979 85.0763 119.35 84.341 118.116C83.2324 116.265 82.1498 114.398 81.0936 112.516C74.485 100.779 67.9668 86.7512 67.2457 73.0856C67.102 70.3618 67.5561 67.773 68.2689 65.1714C68.6044 63.9468 67.249 62.4861 65.9749 63.1466C64.6584 63.8067 64.4375 65.4568 64.195 66.7784C63.4199 70.5378 63.46 74.0485 63.9843 77.8303C64.153 79.0475 64.8724 82.1457 64.5573 83.0545C64.2549 83.3643 64.4339 83.272 63.997 83.3326C63.77 83.244 63.5213 83.1996 63.4643 82.9054C62.2681 76.7074 61.5113 70.2077 63.5735 64.0933C64.5192 61.2891 67.9697 60.8046 69.3912 63.4926C70.0776 64.7903 69.1579 66.4649 68.9567 67.7958C67.3505 78.4174 71.5671 89.3637 75.6664 98.9728C81.7785 97.5843 87.1188 99.861 92.6118 95.3232C91.9699 94.6667 91.5912 93.9671 91.0666 93.2049C86.4735 86.5308 82.2087 75.0509 90.603 69.4361C91.9403 68.5415 93.5429 68.1913 95.0506 67.6169C94.5908 65.1499 93.2187 51.7742 99.9503 55.0398C100.355 55.2365 101.167 56.1924 101.265 56.6533C101.446 57.5039 101.289 58.6203 101.196 59.484C100.814 62.2397 100.99 64.8929 101.443 67.6259C107.189 68.5019 111.628 69.878 117.161 71.5042C118.186 70.7922 121.446 66.8953 122.515 65.6879C128.329 59.1336 134.029 52.4806 139.614 45.7314C140.143 45.0984 141.021 43.9419 141.859 43.8648L142.032 44.0345C142.087 45.3933 140.569 46.6387 139.699 47.669L135.202 53.0156C128.868 60.5207 122.393 67.9074 115.784 75.1719C114.033 77.0654 112.259 78.9374 110.463 80.7875C109.418 81.865 107.575 83.6529 106.751 84.7935C107.337 86.5665 108.831 89.6481 109.646 91.4562C123.431 78.0214 137.835 65.2326 152.811 53.1312L169.054 39.7914C173.337 36.2912 176.965 33.1645 181.595 29.1212C187.998 24.0545 195.351 11.7957 184.667 6.90943C175.506 2.71947 163.318 19.2004 158.428 25.1234L148.29 37.3418C147.468 38.3238 144.867 41.8141 143.874 42.2357C143.644 42.21 143.252 42.1614 143.229 41.8847C143.191 41.4623 143.62 40.8417 143.873 40.5379C145.188 38.9526 146.541 37.4 147.865 35.8211L154.78 27.4588C157.712 23.9308 160.673 20.2932 163.701 16.8531C167.987 11.9856 173.599 5.97982 180.347 5.1197ZM96.7965 56.5104C95.5386 60.1064 95.9727 65.4766 96.6012 69.253C96.8365 70.666 97.2777 72.0525 97.4227 73.5057C95.7234 73.8691 93.9576 74.1834 92.925 75.7227C91.8992 77.2518 91.9504 79.1489 92.3135 80.8689C92.9818 84.0346 95.5426 88.9367 97.6896 91.4709C98.8391 90.341 100.049 89.3186 101.197 88.194C100.467 86.0899 98.2534 81.0541 98.0186 79.2462C98.255 78.8732 98.4606 78.8881 98.9036 78.9717C99.5369 79.5048 100.986 84.1746 101.435 85.3118C104.028 91.8779 107.481 98.1153 109.912 104.732C110.733 106.963 111.489 109.409 111.684 111.777C111.935 114.805 111.193 117.547 109.179 119.865C106.295 123.183 101.693 125.04 97.358 125.324C87.544 125.965 78.031 119.823 70.9709 113.59C67.9018 110.881 60.4783 103.288 60.1423 99.3224C60.1127 98.9734 60.1681 98.5741 60.4446 98.3258C60.8221 97.9867 61.4654 98.0169 61.9278 98.0931C62.6475 98.2114 63.4117 98.4327 64.0919 98.6927C65.6478 99.3748 67.0647 100.14 68.591 100.868C68.8629 100.998 68.9588 100.931 69.1862 100.856C69.4876 100.133 68.057 97.2627 67.7379 96.3795C65.6971 95.2233 61.745 93.8606 59.4931 94.6197C53.3287 96.8386 57.9465 104.258 60.3955 107.617C65.8951 115.16 72.8383 120.462 80.9571 125.062C91.193 130.861 107.471 131.034 113.903 119.585C118.45 110.757 112.083 100.171 108.53 92.1396C104.301 82.5771 100.003 73.0567 99.6763 62.4802C99.6027 60.1043 101.341 55.4673 97.6307 55.7982L96.7965 56.5104ZM76.2292 100.153C76.5545 101.167 77.8713 103.727 78.4059 104.755C80.6142 109.001 83.108 113.86 85.6991 117.881L88.6535 122.768C90.4903 123.566 93.1915 123.973 95.1894 124.026C95.9778 121.805 96.4323 119.48 96.538 117.127C96.7417 112.615 95.9447 109.925 98.2024 105.7C99.5662 103.147 100.964 101.233 102.815 98.9882C103.36 98.326 104.561 96.9901 104.981 96.3331C104.359 95.2209 102.504 91.2129 101.862 89.7802C101.857 89.7699 101.609 89.6964 101.6 89.6958L101.447 89.8103C100.146 90.7947 98.9647 91.9754 97.7354 93.0179C94.2811 95.9473 90.0408 99.2489 85.3543 99.6465C82.2267 99.9118 79.4344 99.6022 76.2292 100.153ZM34.9692 134.708C35.6796 133.654 36.5443 132.832 37.2428 131.862C37.2203 131.828 37.1983 131.793 37.1756 131.759C36.6212 130.93 35.9234 130.208 35.3311 129.405C33.6787 127.165 31.3658 123.485 31.8973 120.542C32.0582 119.65 32.5547 118.844 33.3288 118.355C34.6823 117.499 36.3388 117.727 37.8061 118.096C46.7252 120.342 58.4442 132.44 65.7239 138.497C70.1924 142.215 75.1421 145.87 80.5297 148.143C83.9713 149.64 88.3733 150.932 92.0467 149.518C96.0072 147.994 96.786 143.501 95.8036 139.827C95.6665 139.314 95.5159 137.663 94.979 137.491C93.6345 137.059 92.1939 136.792 90.8148 136.46C91.7049 138.841 94.1172 145.099 90.355 146.205C87.036 147.181 82.6373 145.074 79.7248 143.558C74.291 140.698 69.5388 136.742 64.9102 132.792C57.0973 126.125 46.3531 114.951 35.5716 114.022C23.1361 115.366 28.9589 129.335 34.9692 134.708ZM39.2209 129.427C40.2436 128.399 40.5068 127.982 41.355 126.851L41.2436 126.746C40.7762 126.298 40.2795 125.848 40.7425 125.226C41.416 124.974 42.4435 125.227 43.0562 125.575C55.1538 132.435 63.0744 147.645 67.978 160.081C71.3974 168.753 73.9969 181.913 68.3334 189.936L68.2216 190.059C67.7459 190.586 67.199 191.41 67.3326 192.098C67.8418 194.717 70.1996 193.525 71.2195 192.161C75.2543 186.763 75.7572 179.978 75.1138 173.51C73.4796 160.568 67.7555 148.217 60.4714 137.494C59.6175 136.236 58.5957 134.78 57.6205 133.581C55.1431 130.538 51.4939 127.628 48.3059 125.344C46.2659 123.882 43.006 121.114 40.4877 121.594C35.3806 122.315 36.5493 126.691 39.2209 129.427ZM39.912 113.434C40.663 113.92 42.2826 114.512 43.1586 114.783C43.4975 114.208 43.7477 113.755 44.4521 113.618C46.708 113.178 49.3221 114.112 51.3946 114.989C59.6982 118.501 67.0248 124.183 74.9395 128.425C83.3763 132.949 104.926 142.848 111.312 131.387C112.501 129.186 112.794 126.446 112.721 123.982L112.589 123.813C111.951 124.248 109.716 126.019 109.063 126.572C108.452 128.69 107.958 130.76 105.787 131.894C101.895 133.929 95.9893 132.745 91.9741 131.602C85.8131 129.848 80.4781 127.22 74.9394 124.199C67.5228 120.154 53.0177 108.884 44.3504 109.939C41.7837 110.248 40.739 110.931 39.912 113.434ZM65.2194 142.623C66.6953 144.867 68.2554 145.931 70.3609 147.555C75.1569 151.256 80.5637 155.144 86.5471 156.596C90.3288 157.514 95.0632 157.279 96.4749 152.966C96.7732 150.935 96.5768 150.067 96.0989 148.064C95.0313 149.14 94.4617 149.794 93.1159 150.514C93.0246 151.318 92.9534 152.19 92.2245 152.65C89.2158 154.553 83.4368 151.825 80.9614 150.294C76.5333 147.558 72.5186 145.361 68.4372 142.222C67.888 141.798 67.3805 141.335 66.7241 141.095C66.2147 141.645 65.7592 142.103 65.2194 142.623ZM62.6547 129.06L63.5657 128.163C64.5559 127.209 65.8756 125.931 67.019 125.207C66.2043 124.697 63.472 122.86 62.8137 122.771C62.0639 123.937 61.0283 124.855 60.1203 125.883C59.9654 126.059 60.024 126.27 60.0395 126.476C60.4906 127.283 61.915 128.343 62.6547 129.06ZM43.0625 126.998C40.4342 130.394 37.3501 133.631 34.7315 136.965C29.3073 143.87 23.4219 151.262 18.4501 158.478C19.5374 157.726 20.0335 157.013 20.9816 156.138C23.5638 153.27 26.7522 150.138 29.4663 147.34L47.0198 129.462C45.9728 128.766 44.115 127.459 43.0625 126.998ZM61.8147 121.972C61.0463 121.538 59.1621 120.238 58.5724 120.001C57.5691 120.96 56.5552 121.869 55.5364 122.809C56.029 123.267 58.315 125.357 58.8166 125.462C59.8301 124.313 60.8592 123.169 61.8147 121.972ZM94.6884 130.952C98.683 131.677 105.833 133.197 107.361 127.811C107.314 127.75 107.267 127.691 107.22 127.631C104.597 128.934 101.763 129.763 98.8507 130.081C98.0319 130.172 93.7757 130.113 93.4975 130.397C93.7944 130.788 94.2035 130.867 94.6884 130.952ZM69.8741 128.607C69.3977 127.482 68.9121 126.609 67.5973 126.424C66.2854 127.318 64.8996 128.704 63.7607 129.843C64.3867 130.776 65.4298 131.542 66.3105 132.252C67.1611 132.268 69.4178 129.366 69.8741 128.607ZM89.7518 143.858L90.5896 144.911C91.1095 143.333 91.1255 142.166 90.7838 140.533C90.5146 139.245 89.8812 137.13 88.6743 136.427C88.0965 137.059 86.5068 138.629 86.1055 139.206C87.3435 140.733 88.6373 142.235 89.7518 143.858ZM51.9503 141.237C52.8468 141.815 54.1583 142.343 55.1586 142.785L56.0232 143.217C56.5102 142.859 57.1532 142.49 57.2684 141.896C57.0203 141.293 55.261 138.658 54.7425 138.427C53.8002 139.437 52.7974 140.169 51.9503 141.237ZM109.722 110.162C109.987 110.736 110.164 111.132 110.505 111.673C110.312 110.49 110.046 109.319 109.71 108.168C109.259 106.639 106.461 98.8312 105.443 97.9916C104.826 98.6013 104.144 99.1669 103.81 99.9553C103.852 100.432 105.124 102.238 105.466 102.71C107.209 105.1 108.315 107.602 109.722 110.162ZM43.7774 142.013L46.2562 139.22C45.0677 138.784 42.9497 136.726 42.0061 136.429C41.1579 137.298 40.3053 138.163 39.448 139.024C40.4821 139.678 42.9684 141.925 43.7774 142.013ZM50.4127 118.936C51.1476 119.462 54.1298 121.856 54.6862 121.872L54.9316 121.714C55.4211 121.223 56.8698 119.89 57.1764 119.388C56.8481 118.764 53.1863 117.127 52.432 116.886L50.4127 118.936ZM48.0422 144.905C49.0281 145.514 51.2636 146.587 52.3674 147.029L55.1287 144.211C53.7679 143.6 52.3225 142.956 51.0155 142.236C49.7697 143.08 49.0627 143.825 48.0422 144.905ZM49.2191 118.294L49.8666 117.621C50.2888 117.145 50.721 116.678 51.0996 116.168C49.1086 115.359 46.965 114.681 44.8096 114.809L44.5639 115.176C44.75 115.736 48.19 117.362 49.2191 118.294ZM81.8446 143.248C83.2337 143.917 84.6809 144.458 86.1682 144.867C87.235 145.066 87.9864 145.197 89.0765 145.228C88.5227 144.429 85.7832 140.438 85.0851 140.168C83.9178 141.219 82.9424 142.128 81.8446 143.248ZM67.5526 101.837C65.9491 100.798 63.429 99.7495 61.529 99.3326C61.7973 100.442 63.1333 103.193 63.9718 103.879C64.6043 103.983 65.525 103.206 66.1159 102.804C66.5924 102.483 67.0804 102.162 67.5526 101.837ZM100.466 104.248C103.122 108.453 105.809 112.666 107.372 117.429C107.563 118.01 107.765 118.683 107.993 119.238C109.052 118.069 110.27 116.382 110.106 114.798C109.851 112.329 104.371 102.618 102.785 101.133C101.97 102.024 101.207 103.255 100.466 104.248ZM96.598 124.019C99.155 123.849 100.282 123.609 102.661 122.803C104.344 122.051 105.597 121.517 106.962 120.239C105.571 115.717 103.673 111.657 101.138 107.657C100.823 107.16 100.099 105.812 99.6303 105.617C97.1908 110.789 98.1909 111.854 97.9186 117.089C97.7765 119.445 97.3326 121.774 96.598 124.019ZM70.2023 152.259C70.4025 152.049 70.9255 151.473 71.1207 151.315C71.4218 151.053 71.764 150.769 72.0443 150.489C71.4873 150.05 68.798 147.879 68.3098 147.659C68.1996 148.717 69.8083 151.114 70.2023 152.259ZM86.1991 151.264C86.7953 151.479 87.3374 151.672 87.9456 151.855C88.73 152.051 91.4426 152.438 91.5459 151.261C91.2732 151.082 91.3116 151.153 90.8868 151.217C88.9614 151.451 88.1152 151.42 86.1991 151.264ZM65.3529 140.664L65.6656 140.366C65.6256 139.61 63.561 138.155 62.7562 138.173C62.7202 138.847 64.0194 140.607 64.4769 141.142C64.7901 141.172 65.067 140.896 65.3529 140.664ZM26.2943 163.961C32.4334 157.896 38.9469 151.714 45.1902 145.734L50.9304 140.252C51.8454 139.377 53.2475 138.11 54.0485 137.21C53.3956 136.408 52.7365 135.611 52.0711 134.821C49.8266 137.125 47.6771 139.629 45.526 142.027L33.1374 155.861L27.8725 161.648C27.3017 162.274 25.4823 164.192 25.178 164.768C25.5775 164.842 26.0415 164.24 26.2943 163.961ZM71.7109 136.814C72.5359 137.386 73.7959 138.2 74.4881 138.869C74.6738 138.943 74.8784 139.073 75.0731 138.913C76.1427 138.032 78.1854 136.092 77.1357 134.611C76.7572 134.077 75.7515 133.965 75.1408 134.03C74.1305 134.543 72.5616 136.001 71.7109 136.814ZM87.6758 135.569C82.6176 133.429 75.6926 130.807 71.1344 127.648C70.9761 130.9 69.484 130.966 67.5519 133.329C68.2917 134.017 69.8492 135.338 70.6726 135.909C71.8448 134.852 73.9648 132.612 75.6382 132.565C77.1212 132.523 79.0438 134.472 78.8214 135.998C78.6177 137.396 76.9345 138.877 75.9575 139.858L78.9955 141.716C79.5352 142.029 80.0768 142.339 80.6202 142.644C82.7355 140.294 85.4574 137.99 87.6758 135.569ZM43.0488 135.386C44.2471 136.333 45.4946 137.214 46.7862 138.029L47.0259 138.173C47.6645 137.912 50.5149 134.558 51.1382 133.834C50.7633 133.307 48.4074 130.729 47.9085 130.482C46.7503 131.629 43.9665 134.249 43.0488 135.386ZM35.1595 119.008C33.137 119.485 32.8164 120.821 33.3547 122.755C34.0869 125.386 36.3816 129.553 38.7294 131.002C38.2345 130.261 37.9674 129.933 37.3736 129.261C34.9622 125.671 34.7097 121.257 39.8972 120.256C38.4552 119.602 36.7934 118.929 35.1595 119.008ZM59.9591 109.3C58.9163 110.203 58.0967 110.949 57.1347 111.955C61.1334 114.214 65.0457 116.484 68.8863 119.005C69.2796 119.263 69.9374 119.713 70.3324 119.908C70.6057 120.075 71.8796 120.9 72.0719 120.896C71.7821 120.363 64.5332 115.137 63.6946 113.557C63.6759 113.522 60.0454 109.374 59.9591 109.3ZM106.104 83.3327C107.16 82.5459 108.348 81.1493 109.318 80.1818C110.32 79.1215 111.618 77.8635 112.424 76.6835C109.241 75.8609 106.287 74.9953 103.055 74.344C103.694 76.8897 105.03 80.9256 106.104 83.3327ZM49.9174 103.964C48.0773 104.564 47.8258 105.778 48.7995 107.349C50.1891 107.948 51.6376 108.217 53.0359 108.756C54.0977 109.165 55.1209 109.908 56.1797 110.346C56.5471 110.498 56.7857 110.431 57.0891 110.218C57.7883 109.532 58.5268 108.83 59.196 108.119C57.2529 106.437 52.4018 104.375 49.9174 103.964ZM101.653 69.0605C101.915 70.2969 102.183 71.7641 102.652 72.9224C104.842 73.3871 107.02 73.912 109.181 74.4962C110.4 74.8174 112.351 75.3969 113.526 75.621C113.949 75.1874 114.353 74.7821 114.748 74.3205C115.361 73.7 115.621 73.3452 116.138 72.6328C111.761 71.2355 106.199 69.5543 101.653 69.0605ZM70.078 102.076C68.3211 102.82 66.3558 104.1 64.8227 105.2C68.4139 109.591 70.5129 111.6 74.9534 115.236C76.0415 115.967 77.0996 116.823 78.1354 117.631C77.6085 116.525 76.9565 115.549 76.3808 114.481C74.5603 111.102 72.6753 107.767 71.1539 104.24C70.9358 103.734 70.3987 102.38 70.078 102.076ZM58.0808 143.227C56.7504 144.301 54.4967 146.769 53.244 148.079L36.6438 165.23C35.3019 166.6 31.5026 170.21 30.6568 171.703C30.99 171.439 31.6544 170.95 31.8937 170.641L52.0972 152.528C54.5067 150.401 57.362 147.643 59.793 145.697C59.4947 145.221 58.4675 143.476 58.0808 143.227ZM145.312 74.7047C144.42 75.1246 143.172 75.7193 142.233 75.9761C138.837 76.9047 134.84 76.6331 131.377 76.2368C130.836 76.1752 128.541 75.8026 128.24 75.9755C127.186 76.5836 125.615 78.0876 124.653 78.905C125.555 79.0391 126.802 79.294 127.651 79.3839C132.964 80.2763 138.209 80.8525 143.507 79.3764C144.959 78.9713 149.133 77.3659 147.215 75.2348C146.878 74.8658 146.401 74.6559 145.901 74.657C145.714 74.6579 145.5 74.6825 145.312 74.7047ZM63.1218 152.643C57.3374 158.345 51.521 164.013 45.6731 169.649L40.264 174.896C39.5025 175.637 38.1437 176.887 37.4877 177.639C38.1797 177.253 38.5518 176.999 39.1962 176.533C45.7686 171.783 52.2147 166.862 58.5276 161.775C60.2179 160.398 63.708 157.67 65.1246 156.2C64.5159 155.297 63.776 152.814 63.1218 152.643ZM95.0441 68.986C93.291 69.5593 91.4384 70.1929 90.0984 71.4837C84.354 77.0173 88.0468 86.1853 91.6938 91.8347C92.3004 92.7742 92.9781 93.8463 93.697 94.6498C94.6983 93.8995 95.6596 93.0642 96.6686 92.3456C93.8557 87.9319 88.3167 80.3183 92.0033 74.7675C92.8876 73.4361 94.4437 72.9063 95.9106 72.4074C95.7114 71.6338 95.3599 69.5395 95.172 69.0294L95.0441 68.986Z" fill="#EF4045"/>
<path d="M97.083 75.3788C98.5167 75.2823 98.6682 76.085 98.1743 77.2047C96.9014 77.3523 96.727 76.3667 97.083 75.3788Z" fill="#EF4045"/>
<path d="M177.401 27.1892C177.81 27.2004 177.811 27.2232 178.173 27.383C178.55 27.9332 178.069 28.3349 177.627 28.7298C175.295 30.8165 172.862 32.8022 170.453 34.8024C166.274 38.2919 162.068 41.7502 157.836 45.177C155.797 46.8479 153.768 48.5292 151.748 50.2207C150.644 51.1377 149.332 52.2873 148.176 53.0767L147.892 53.0975C147.465 52.8859 147.614 53.042 147.415 52.6261C147.538 51.6599 149.428 50.4467 150.245 49.7796L155.846 45.1995C162.775 39.5029 170.853 33.1314 177.401 27.1892Z" fill="#EF4045"/>
<path d="M77.5248 67.3239C79.2091 66.8587 80.9516 67.8485 81.4092 69.5304C81.8668 71.2123 80.8646 72.9443 79.1754 73.3914C77.4989 73.8351 75.7778 72.8453 75.3237 71.1761C74.8697 69.5071 75.8531 67.7858 77.5248 67.3239ZM78.482 72.1505C79.4648 72.0934 80.2196 71.2598 80.1764 70.2792C80.1333 69.2984 79.3081 68.534 78.324 68.563C77.6747 68.5821 77.086 68.9483 76.7835 69.5215C76.4809 70.0946 76.5113 70.7858 76.8631 71.3303C77.2149 71.8748 77.8335 72.1882 78.482 72.1505Z" fill="#EF4045"/>
<path d="M105.797 140.617C106.891 140.317 108.06 140.628 108.859 141.43C109.657 142.233 109.96 143.402 109.653 144.49C109.344 145.578 108.472 146.415 107.37 146.682C105.701 147.086 104.016 146.079 103.586 144.422C103.156 142.764 104.141 141.069 105.797 140.617ZM107.112 145.387C107.464 145.296 107.78 145.1 108.019 144.826C108.527 144.242 108.6 143.399 108.203 142.736C107.805 142.073 107.024 141.739 106.268 141.91C105.472 142.089 104.898 142.781 104.871 143.593C104.851 144.158 105.1 144.696 105.541 145.05C105.982 145.403 106.564 145.528 107.112 145.387Z" fill="#EF4045"/>
<path d="M25.7052 105.078C26.8065 104.829 27.9571 105.189 28.7183 106.021C29.4795 106.852 29.7338 108.027 29.3844 109.099C29.035 110.169 28.1356 110.97 27.0293 111.196C25.3435 111.54 23.6942 110.467 23.3312 108.79C22.9682 107.113 24.0271 105.457 25.7052 105.078ZM27.052 109.862C28.8932 108.399 28.2796 106.242 25.8432 106.408C23.9316 107.455 24.2118 110.268 27.052 109.862Z" fill="#EF4045"/>
<path d="M83.999 170.098C85.7212 169.944 87.2429 171.211 87.3982 172.928C87.5535 174.645 86.2836 176.163 84.5613 176.318C82.8382 176.474 81.3149 175.207 81.1595 173.488C81.0042 171.771 82.2756 170.253 83.999 170.098ZM84.797 174.933C85.7533 174.673 86.3247 173.697 86.0813 172.74C85.8381 171.781 84.8698 171.195 83.9048 171.42C83.2652 171.569 82.7562 172.052 82.5737 172.682C82.3911 173.31 82.5635 173.989 83.0244 174.456C83.4853 174.922 84.163 175.106 84.797 174.933Z" fill="#EF4045"/>
<path d="M102.062 45.1247C103.167 44.9163 104.298 45.3159 105.025 46.1709C105.752 47.0258 105.962 48.2043 105.575 49.2565C105.188 50.3086 104.263 51.0722 103.154 51.2556C101.466 51.535 99.8673 50.4081 99.5681 48.7284C99.269 47.0487 100.381 45.4418 102.062 45.1247ZM103.034 49.891C103.992 49.6605 104.58 48.6976 104.345 47.7435C104.11 46.7893 103.142 46.2071 102.186 46.4451C101.235 46.6817 100.655 47.6403 100.889 48.5893C101.123 49.5382 102.082 50.1202 103.034 49.891Z" fill="#EF4045"/>
<path d="M184.432 13.5221C185.542 13.7638 185.521 14.325 185.555 15.3222C185.691 19.297 183.565 22.8001 180.866 25.5628C180.631 25.5908 180.592 25.5677 180.354 25.5411C179.958 25.2614 180.074 25.4394 179.937 25.0304C180.038 24.5225 181.725 22.6072 182.109 21.9981C183.137 20.3615 183.887 18.8822 184.116 16.931C184.243 15.8371 183.883 14.4465 184.432 13.5221Z" fill="#EF4045"/>
<path d="M128.679 120.006C129.787 120.071 130.829 120.945 131.109 122.028C131.188 122.339 130.937 122.645 130.767 122.894C130.003 122.676 128.88 121.483 128.5 120.78C128.342 120.486 128.543 120.263 128.679 120.006Z" fill="#EF4045"/>
<path d="M10.4609 134.666C11.4576 134.779 12.4544 135.721 12.933 136.584C13.1145 136.911 12.9145 137.294 12.8071 137.622C11.9291 137.443 10.7925 136.332 10.3457 135.569C10.1724 135.274 10.3574 134.957 10.4609 134.666Z" fill="#EF4045"/>
<path d="M124.306 121.661C125.253 121.643 125.61 121.806 125.394 122.898C125.282 123.465 124.985 124.166 124.788 124.724C124.214 124.704 124.318 124.792 123.919 124.516C123.55 123.639 123.963 122.527 124.306 121.661Z" fill="#EF4045"/>
<path d="M16.7396 133.524L17.3412 133.572C18.1063 134.184 17.6114 135.847 17.1906 136.553C16.9142 136.568 16.8446 136.56 16.5682 136.529C15.7953 135.905 16.2944 134.237 16.7396 133.524Z" fill="#EF4045"/>
<path d="M130.995 115.657C131.613 115.598 132.013 115.423 132.419 115.947L132.365 116.24C131.814 116.941 131.612 116.874 130.722 116.997C130.68 117.001 130.636 117.006 130.594 117.011L130.403 117.028C129.798 117.085 129.669 117.109 129.292 116.602C129.447 115.624 130.215 115.691 130.995 115.657Z" fill="#EF4045"/>
<path d="M10.5726 140.345C11.0539 140.247 11.2777 140.254 11.6438 140.575C11.6268 141.66 10.407 141.786 9.57073 141.899C9.07304 141.927 8.92546 141.973 8.5585 141.739C8.47898 141.316 8.46553 141.52 8.61381 141.106C9.08274 140.664 9.90249 140.536 10.5726 140.345Z" fill="#EF4045"/>
<path d="M14.8018 140.611C15.6165 140.539 16.0546 140.365 16.6773 140.97C16.8083 141.657 16.2121 141.779 15.6554 141.869C14.8301 141.909 14.0342 142.059 13.5971 141.182L13.7087 140.943C14.0948 140.652 14.2987 140.675 14.8018 140.611Z" fill="#EF4045"/>
<path d="M124.195 116.633C125.987 116.716 125.319 118.219 124.974 119.403L124.426 119.42C123.521 118.961 123.918 117.408 124.195 116.633Z" fill="#EF4045"/>
<path d="M46.3347 180.402C46.8155 180.392 47.0877 180.457 47.1907 180.917C46.942 181.704 46.3874 182.071 45.7537 182.552C45.5347 182.641 45.3528 182.614 45.1388 182.564C44.7072 181.602 45.6225 180.866 46.3347 180.402Z" fill="#EF4045"/>
<path d="M46.6999 96.3212C47.1062 96.2846 47.3212 96.3948 47.5935 96.67C47.7022 97.3931 46.8442 98.0444 46.3337 98.446C45.8056 98.4555 45.5303 98.3294 45.4576 97.819C45.749 97.0683 46.0662 96.8297 46.6999 96.3212Z" fill="#EF4045"/>
<path d="M41.6373 184.959C42.1195 185.076 42.2662 185.072 42.4597 185.507C42.364 186.187 41.6943 186.644 41.1709 187.095C40.6871 187.11 40.6028 187.073 40.3112 186.732C40.244 185.944 41.0561 185.347 41.6373 184.959Z" fill="#EF4045"/>
<path d="M119.957 118.151C120.548 118.141 120.595 118.088 120.9 118.592C120.975 119.211 120.721 119.845 120.54 120.464C118.779 120.34 119.123 119.256 119.957 118.151Z" fill="#EF4045"/>
<path d="M51.1742 91.805L51.8271 91.9749C52.1296 92.2814 52.0521 92.1011 52.0607 92.537C51.8233 93.0422 51.2746 93.4985 50.8585 93.9047C50.6607 93.8738 50.4333 93.8211 50.2342 93.7806C49.8944 93.4803 49.9842 93.6594 49.9169 93.2462C50.1286 92.5963 50.6255 92.1938 51.1742 91.805Z" fill="#EF4045"/>
<path d="M46.1334 91.8702C46.854 92.1042 47.4597 92.5677 47.5976 93.3349C47.5178 93.7563 47.3956 93.8129 47.077 94.1023C46.3281 93.8603 45.7412 93.4515 45.6099 92.6513C45.6903 92.2574 45.8485 92.1574 46.1334 91.8702Z" fill="#EF4045"/>
<path d="M50.1292 96.3205C51.2147 96.2751 52.3843 97.1838 51.5975 98.3351C50.8397 98.4138 50.1726 97.7954 49.8955 97.1225C49.7586 96.7906 49.9629 96.6012 50.1292 96.3205Z" fill="#EF4045"/>
<path d="M14.2734 144.886C14.7304 144.856 14.9195 144.813 15.216 145.189C15.2851 145.999 14.3527 146.27 13.7639 146.464C13.2995 146.513 13.121 146.492 12.8466 146.133C12.8749 145.252 13.5582 145.073 14.2734 144.886Z" fill="#EF4045"/>
<path d="M40.9141 180.488C41.5888 180.666 42.2866 181.179 42.436 181.89C42.3221 182.364 42.3136 182.252 41.9263 182.661C41.3485 182.678 40.5436 182.02 40.5118 181.419C40.4884 180.976 40.687 180.825 40.9141 180.488Z" fill="#EF4045"/>
<path d="M126.551 112.479C127.134 112.431 127.355 112.381 127.821 112.68C128.059 113.042 128.025 112.856 127.973 113.246C127.732 113.624 127.607 113.635 127.176 113.834C126.518 113.883 125.654 114.045 125.727 113.097C125.94 112.72 126.158 112.669 126.551 112.479Z" fill="#EF4045"/>
<path d="M19.8486 137.568C20.2467 137.624 20.346 137.607 20.6533 137.871C20.9495 138.611 20.6268 139.315 20.4068 140.109C18.8905 140.036 19.3956 138.457 19.8486 137.568Z" fill="#EF4045"/>
<path d="M64.5788 85.4872C65.8704 85.576 66.2637 86.4142 65.5825 87.4616C64.0418 87.6413 64.0886 86.568 64.5788 85.4872Z" fill="#EF4045"/>
<path d="M45.1711 184.973C46.266 185.198 47.213 185.836 46.3152 186.964C45.2023 186.792 44.333 186.084 45.1711 184.973Z" fill="#EF4045"/>
<path d="M142.857 55.8398C143.14 55.7198 143.465 55.7605 143.708 55.9464C143.952 56.1322 144.076 56.4345 144.034 56.7376C143.992 57.0407 143.79 57.2977 143.505 57.4104C143.072 57.5816 142.581 57.3737 142.403 56.9439C142.226 56.5141 142.429 56.0221 142.857 55.8398Z" fill="#EF4045"/>
</svg>
